Coordinates
version=1
nRows=9
nColumns=42
inDegrees=yes

Units are S.I. units (second, meters, Newtons, ...)
If the header above contains a line with 'inDegrees', this indicates whether rotational values are in degrees (yes) or radians (no).

endheader
time	pelvis_tilt	pelvis_list	pelvis_rotation	pelvis_tx	pelvis_ty	pelvis_tz	hip_flexion_r	hip_adduction_r	hip_rotation_r	knee_angle_r	knee_adduction_r	knee_angle_r_beta	ankle_angle_r	subtalar_angle_r	mtp_angle_r	hip_flexion_l	hip_adduction_l	hip_rotation_l	knee_angle_l	knee_adduction_l	knee_angle_l_beta	ankle_angle_l	subtalar_angle_l	mtp_angle_l	lumbar_extension	lumbar_bending	lumbar_rotation	arm_flex_r	arm_add_r	arm_rot_r	elbow_flex_r	pro_sup_r	wrist_flex_r	wrist_dev_r	arm_flex_l	arm_add_l	arm_rot_l	elbow_flex_l	pro_sup_l	wrist_flex_l	wrist_dev_l
      0.98000000	     -4.09769247	      0.19587477	      0.90830045	     -0.95406385	      0.87997226	     -0.22052938	      4.17117159	     -9.87749120	     -1.17059496	     56.36614114	     11.12481674	      0.98377475	     -5.58059534	     -3.90467868	     -7.63849150	     20.22435241	     -8.25427352	     -1.65264709	     20.20618330	     20.23949434	      0.35266443	      4.87246451	     -4.55763129	     -7.63849150	     -9.09326215	      0.26047817	      2.26068093	     -2.21217118	    -14.03520041	     -3.14570891	     18.48989135	     90.00000001	      0.00000000	      0.00000000	    -10.43726822	     -8.51252524	      0.41231822	     20.23320601	     90.00000001	      0.00000000	      0.00000000
      0.99000000	     -3.94610229	     -0.02730423	      0.99323221	     -0.94336526	      0.88193481	     -0.22126010	      5.69472098	     -9.48628528	     -1.05835489	     57.85625538	     10.69408371	      1.00978215	     -3.91842529	     -4.77739083	     -7.63631126	     19.07321452	     -8.46067664	     -1.66483191	     19.81826737	     20.30191357	      0.34589402	      5.38703398	     -4.04390910	     -7.63631126	     -9.31066895	      0.55973770	      2.05092830	     -2.23918596	    -14.02399482	     -3.14900521	     18.46417503	     90.00000001	      0.00000000	      0.00000000	    -10.06190282	     -8.78392089	      0.36975264	     20.51733972	     90.00000001	      0.00000000	      0.00000000
      1.00000000	     -3.97008393	     -0.22871525	      1.02524548	     -0.93271759	      0.88361501	     -0.22190749	      7.42530755	     -9.11226873	     -1.05087141	     59.09570507	     10.21063807	      1.03141463	     -2.13069044	     -5.67963994	     -7.63414216	     18.00032792	     -8.66809099	     -1.70864629	     19.20098184	     20.39089509	      0.33512035	      5.94389574	     -3.43617216	     -7.63414216	     -9.29941784	      0.83257858	      1.87627432	     -2.28008610	    -14.00092592	     -3.17656644	     18.38364207	     90.00000001	      0.00000000	      0.00000000	     -9.74418520	     -9.06441424	      0.31450187	     20.79761536	     90.00000001	      0.00000000	      0.00000000
      1.01000000	     -4.00256091	     -0.45492910	      1.14241328	     -0.92208360	      0.88519006	     -0.22272128	      9.08331524	     -8.76965252	     -1.18732132	     59.98967630	      9.84582656	      1.04701737	     -0.41429798	     -6.38164399	     -7.63207390	     16.95194483	     -8.86558109	     -1.74740952	     18.58406440	     20.43766552	      0.32435311	      6.44102642	     -2.84418178	     -7.63207390	     -9.26932748	      1.17314448	      1.58973247	     -2.30548250	    -14.00488413	     -3.24189928	     18.31995293	     90.00000001	      0.00000000	      0.00000000	     -9.43747220	     -9.31814413	      0.27079798	     21.07031132	     90.00000001	      0.00000000	      0.00000000
      1.02000000	     -4.03178789	     -0.70456190	      1.34090749	     -0.91134521	      0.88666807	     -0.22355447	     10.63311481	     -8.42248189	     -1.48293404	     60.50836318	      9.52285980	      1.05607016	      1.33650953	     -6.93794748	     -7.63003809	     15.88863938	     -9.08113690	     -1.73810590	     17.92697033	     20.49292359	      0.31288466	      6.94566619	     -2.21910516	     -7.63003809	     -9.21155216	      1.53901952	      1.23835533	     -2.36377864	    -13.97817618	     -3.33876338	     18.23623472	     90.00000001	      0.00000000	      0.00000000	     -9.15168654	     -9.59324985	      0.23106489	     21.34033507	     90.00000001	      0.00000000	      0.00000000
      1.03000000	     -4.01998165	     -0.98424593	      1.65963979	     -0.90047547	      0.88809579	     -0.22449696	     12.01334152	     -8.08321349	     -1.94706814	     60.63474131	      9.26730191	      1.05827588	      3.05085549	     -7.31711004	     -7.62797122	     14.78679437	     -9.31613711	     -1.62868571	     17.24469042	     20.56205652	      0.30097663	      7.47254931	     -1.53885829	     -7.62797122	     -9.15416863	      1.95947543	      0.76911833	     -2.44166560	    -13.92820070	     -3.47682250	     18.14321105	     90.00000001	      0.00000000	      0.00000000	     -8.89136866	     -9.84939720	      0.20936585	     21.61247202	     90.00000001	      0.00000000	      0.00000000
      1.04000000	     -3.94966601	     -1.30299111	      2.13013534	     -0.88937261	      0.88939871	     -0.22562616	     13.17081356	     -7.78101377	     -2.58361096	     60.38942512	      9.14481286	      1.05399430	      4.61510919	     -7.51675637	     -7.62596238	     13.64686584	     -9.56781170	     -1.47553981	     16.58541634	     20.59600369	      0.28947012	      8.00557488	     -0.85740754	     -7.62596238	     -9.11665555	      2.45673346	      0.13995580	     -2.54175424	    -13.90735086	     -3.65249755	     18.06163383	     90.00000001	      0.00000000	      0.00000000	     -8.66565160	    -10.14046410	      0.20651491	     21.87057159	     90.00000001	      0.00000000	      0.00000000
      1.05000000	     -3.68654772	     -1.72357644	      2.83974324	     -0.87802167	      0.89079806	     -0.22681908	     13.93306280	     -7.39646803	     -3.54598770	     59.74369404	      9.01192320	      1.04272417	      6.23513774	     -7.51856901	     -7.62333716	     12.29232198	     -9.97960765	     -0.91569634	     15.76291077	     20.79368461	      0.27511469	      8.70231679	      0.07456922	     -7.62333716	     -9.25663898	      3.07325463	     -0.65513264	     -2.65287287	    -13.82425267	     -3.95662478	     17.89635251	     90.00000001	      0.00000000	      0.00000000	     -8.42963247	    -10.43971651	      0.24000601	     22.16189996	     90.00000001	      0.00000000	      0.00000000
      1.06000000	     -3.07168251	     -2.31016832	      3.73152858	     -0.86612771	      0.89254866	     -0.22808292	     14.07142879	     -6.84802163	     -5.15852852	     58.54873087	      8.61389191	      1.02186813	      7.41841176	     -6.99861158	     -7.61777896	     10.53702596	    -10.65049798	     -0.34144649	     14.87919961	     21.04112037	      0.25969102	      9.32817096	      0.86704356	     -7.61777896	     -9.70301872	      3.91776351	     -1.62232353	     -2.74574122	    -13.71272178	     -4.54128767	     17.79600013	     90.00000001	      0.00000000	      0.00000000	     -8.25306072	    -10.73392068	      0.36141246	     22.47365561	     90.00000001	      0.00000000	      0.00000000
